<svg width="184" height="25" fill="none" xmlns="http://www.w3.org/2000/svg"><path fill-rule="evenodd" clip-rule="evenodd" d="M0 24.01V0h24.103v24.01h-3.579v-.001l-.001.001-8.593-8.56 2.547-2.536 6.047 6.024V3.564H3.59v16.858h7.322v3.588H0Z" fill="#3957BD"/><path d="M50.673 11.505a9.938 9.938 0 0 0-1.725-5.513 9.995 9.995 0 0 0-4.506-3.634 10.038 10.038 0 0 0-5.773-.533 10.014 10.014 0 0 0-5.1 2.746 9.951 9.951 0 0 0-2.714 5.103 9.929 9.929 0 0 0 .583 5.745 9.974 9.974 0 0 0 3.685 4.459 10.031 10.031 0 0 0 5.548 1.674c1.858.01 3.683-.487 5.279-1.436l2.917 2.918 2.361-2.353-2.787-2.788a10.058 10.058 0 0 0 2.232-6.388Zm-7.215 6.14c-.864.432-1.82.65-2.787.636-3.779 0-6.224-2.988-6.224-6.776s2.445-6.776 6.224-6.776c3.779 0 6.224 3.012 6.224 6.776a7.647 7.647 0 0 1-.969 3.788l-2.858-2.847-2.361 2.353.13.13 2.621 2.717ZM61.373 14.764c0 2.223-1.276 3.905-3.177 3.905-1.677 0-2.527-1.176-2.527-3.435V7.447h-3.413v8.234c0 3.812 1.453 5.882 4.724 5.882a5.127 5.127 0 0 0 2.637-.87 5.1 5.1 0 0 0 1.791-2.118v2.577h3.437V7.447h-3.472v7.317ZM70.537 7.447h-3.413v13.716h3.413V7.447ZM70.537 1.906h-3.413v3.4h3.413v-3.4ZM80.657 7.035a5.103 5.103 0 0 0-2.626.874 5.075 5.075 0 0 0-1.779 2.114V7.447h-3.365v13.716H76.3v-7.329c0-2.246 1.18-3.893 3.14-3.893 1.678 0 2.788 1.176 2.788 3.423v7.8h3.436v-8.235c0-3.812-1.736-5.882-5.007-5.882M91.108 3.435H87.72v14.329a3.047 3.047 0 0 0 .881 2.53 3.073 3.073 0 0 0 2.544.87h3.767v-2.965h-2.81a.854.854 0 0 1-.912-.553.843.843 0 0 1-.045-.377v-7.058h3.767V7.388h-3.803V3.435Z" fill="#000"/><path d="M102.634 7a7.354 7.354 0 0 0-4.14 1.109 7.314 7.314 0 0 0-2.81 3.225 7.28 7.28 0 0 0 1.428 8.043 7.359 7.359 0 0 0 8.02 1.698 7.331 7.331 0 0 0 3.333-2.687 7.29 7.29 0 0 0 1.255-4.083 6.957 6.957 0 0 0-1.955-5.181 6.995 6.995 0 0 0-5.131-2.125Zm0 11.528c-2.007 0-3.637-1.482-3.637-4.223 0-2.741 1.63-4.259 3.637-4.259 2.008 0 3.661 1.506 3.661 4.259s-1.618 4.223-3.661 4.223ZM117.065 1.953l-7.475 19.21h3.838l1.759-4.917h8.019l1.783 4.918h3.838l-7.499-19.211h-4.263Zm-.862 11.47 2.976-8.235 3.011 8.235h-5.987ZM137.507 7.035a5.138 5.138 0 0 0-2.63.876 5.115 5.115 0 0 0-1.787 2.112l.059-2.576h-3.353v13.716h3.412v-7.329c0-2.246 1.181-3.893 3.142-3.893 1.677 0 2.787 1.176 2.787 3.423v7.8h3.436v-8.235c0-3.812-1.736-5.882-5.007-5.882M154.997 9.776a4.99 4.99 0 0 0-4.512-2.741c-3.838 0-6.424 3.364-6.424 7.294 0 3.929 2.586 7.246 6.424 7.246a5.283 5.283 0 0 0 2.666-.766 5.26 5.26 0 0 0 1.905-2.01v2.353h3.412V1.953h-3.412l-.059 7.823Zm-3.661 8.835a3.992 3.992 0 0 1-2.779-1.355 3.96 3.96 0 0 1-.965-2.927 4.02 4.02 0 0 1 2.213-3.923 4.049 4.049 0 0 1 1.531-.418 4.092 4.092 0 0 1 2.782 1.396 4.059 4.059 0 0 1 .985 2.945 3.996 3.996 0 0 1-2.24 3.881 4.02 4.02 0 0 1-1.527.4ZM166.794 7c-3.779 0-6.035 2.223-6.472 4.258l3.413.6a2.98 2.98 0 0 1 1.139-1.53 2.997 2.997 0 0 1 1.837-.528 2.594 2.594 0 0 1 1.994.799 2.57 2.57 0 0 1 .699 2.024v1.741a5.848 5.848 0 0 0-4.098-1.423c-2.893 0-5.149 1.611-5.149 4.246 0 2.636 1.901 4.365 4.842 4.365a5.157 5.157 0 0 0 2.529-.514 5.13 5.13 0 0 0 1.958-1.674l-.082 1.752h3.424V12.33c0-3.4-2.291-5.376-6.034-5.376V7Zm-.39 12.07c-1.877 0-2.751-.93-2.751-1.918 0-.988.85-2.012 2.751-2.012 1.713 0 3.059.742 3.059 1.788 0 1.047-1.323 2.142-3.059 2.142ZM182.689 7.223a4.732 4.732 0 0 0-2.776 1.042 4.7 4.7 0 0 0-1.605 2.487h-.094l.188-3.365h-3.412v13.717h3.412v-5.682c0-3.87 2.043-4.964 4.027-4.964H184V7.305a7.749 7.749 0 0 0-1.323-.106" fill="#000"/></svg>
